<?xml version="1.0" standalone="no"?>
<!DOCTYPE svg PUBLIC "-//W3C//DTD SVG 1.1//EN"
  "http://www.w3.org/Graphics/SVG/1.1/DTD/svg11.dtd">
<svg version="1.1" xmlns="http://www.w3.org/2000/svg" xmlns:xlink="http://www.w3.org/1999/xlink" width="1144" height="1414" viewBox="-32 -32 1144 1414" id="ccdiagram"><filter id="grayscale"><feColorMatrix type="matrix" values="0.3333 0.3333 0.3333 0 0 0.3333 0.3333 0.3333 0 0 0.3333 0.3333 0.3333 0 0 0 0 0 1 0"></feColorMatrix></filter><defs><style type="text/css">@import url('https://fonts.googleapis.com/css?family=Open+Sans:400,700|Inconsolata:400');</style></defs><g><g pointer-events="auto"></g><g pointer-events="auto"></g><g></g><g pointer-events="auto"></g><g></g><g pointer-events="auto"><g opacity="1"></g></g><g pointer-events="none"></g><g pointer-events="auto"><g><g cursor="cell"><line x1="135" y1="765" x2="347" y2="765" stroke="red" stroke-width="8" opacity="0"></line><line x1="135" y1="765" x2="347" y2="765" stroke="#000000" stroke-width="2" stroke-linecap="round"></line><polygon points="360 765, 336 754, 342 765, 336 776, 360 765" stroke-linejoin="round" fill="#000000" stroke="#000000" stroke-width="1"></polygon></g></g><g><g cursor="cell"><line x1="135" y1="585" x2="135" y2="765" stroke="red" stroke-width="8" opacity="0"></line><line x1="135" y1="585" x2="135" y2="765" stroke="#000000" stroke-width="2" stroke-linecap="round"></line></g></g><g><g cursor="cell"><line x1="450" y1="765" x2="662" y2="765" stroke="red" stroke-width="8" opacity="0"></line><line x1="450" y1="765" x2="662" y2="765" stroke="#000000" stroke-width="2" stroke-linecap="round"></line><polygon points="675 765, 651 754, 657 765, 651 776, 675 765" stroke-linejoin="round" fill="#000000" stroke="#000000" stroke-width="1"></polygon></g></g><g><g cursor="cell"><line x1="675" y1="765" x2="932" y2="765" stroke="red" stroke-width="8" opacity="0"></line><line x1="675" y1="765" x2="932" y2="765" stroke="#000000" stroke-width="2" stroke-linecap="round"></line><polygon points="945 765, 921 754, 927 765, 921 776, 945 765" stroke-linejoin="round" fill="#000000" stroke="#000000" stroke-width="1"></polygon></g></g><g><g cursor="cell"><line x1="135" y1="585" x2="135" y2="405" stroke="red" stroke-width="8" opacity="0"></line><line x1="135" y1="585" x2="135" y2="405" stroke="#000000" stroke-width="2" stroke-linecap="round"></line></g></g><g><g cursor="cell"><line x1="135" y1="405" x2="391" y2="405" stroke="red" stroke-width="8" opacity="0"></line><line x1="135" y1="405" x2="391" y2="405" stroke="#000000" stroke-width="2" stroke-linecap="round"></line><polygon points="405 405, 381 394, 387 405, 381 416, 405 405" stroke-linejoin="round" fill="#000000" stroke="#000000" stroke-width="1"></polygon></g></g><g><g cursor="cell"><line x1="405" y1="405" x2="662" y2="405" stroke="red" stroke-width="8" opacity="0"></line><line x1="405" y1="405" x2="662" y2="405" stroke="#000000" stroke-width="2" stroke-linecap="round"></line><polygon points="675 405, 651 394, 657 405, 651 416, 675 405" stroke-linejoin="round" fill="#000000" stroke="#000000" stroke-width="1"></polygon></g></g></g><g pointer-events="auto"><g opacity="1"><g id="3b8d5c3e-139b-4a16-a1f1-ae7a6f85e6e6" transform="translate(0 0)"><svg x="360" y="720" height="90" id="svg35" width="90" version="1.1"><defs id="defs4"></defs><g id="Reference" fill-opacity="1" transform="scale(1.2)"><path id="Purple_Light_BG" d="M0 0h75v75H0z" fill="#693cc5" data-name="Purple Light BG"></path><g id="Product_Icon" fill="#ffffff" data-name="Product Icon"><path class="cls-2" id="path9" d="M46.14 60.67l-1.78-.92a29.75 29.75 0 0 0 2.27-5.66l1.92.56a31.93 31.93 0 0 1-2.41 6.02zM48 42.36a31.87 31.87 0 0 0-5.27-15.68l1.67-1.09A33.81 33.81 0 0 1 50 42.24zM34.81 18.23a30.08 30.08 0 0 0-4.62-2.84l.91-1.78a31.94 31.94 0 0 1 4.92 3z" fill="#ffffff" fill-opacity="1"></path><path class="cls-2" id="path11" d="M43 44.9a29.91 29.91 0 0 0-11.17-7l.62-1.9a31.91 31.91 0 0 1 11.9 7.45z" fill="#ffffff" fill-opacity="1"></path><path class="cls-2" id="path13" d="M51.24 56.84c-.37-1-.79-1.92-1.25-2.85l1.79-.89a32.71 32.71 0 0 1 1.33 3z" fill="#ffffff" fill-opacity="1"></path><path class="cls-2" id="path15" d="M45.57 61.15l-.64-1.89a22.4 22.4 0 0 0 6.63-3.57l1.23 1.58a24.36 24.36 0 0 1-7.22 3.88z" fill="#ffffff" fill-opacity="1"></path><path class="cls-2" id="path17" d="M13.78 37l-.46-1.94a31.25 31.25 0 0 1 6.77-.89l.05 2a29.4 29.4 0 0 0-6.36.83z" fill="#ffffff" fill-opacity="1"></path><path class="cls-2" id="path19" d="M30.18 30.64l-1.68-1.09a28.67 28.67 0 0 1 5.37-6.4l1.32 1.51a26.64 26.64 0 0 0-5.01 5.98z" fill="#ffffff" fill-opacity="1"></path><path class="cls-2" id="path21" d="M45.05 18.78l-.68-1.88A29.77 29.77 0 0 1 49 15.58l.37 2a26.9 26.9 0 0 0-4.32 1.2z" fill="#ffffff" fill-opacity="1"></path><path class="cls-2" id="path23" d="M25.25 59a31.53 31.53 0 0 1-2.57-12 21.72 21.72 0 0 1 .62-4.72c.07-.35.15-.71.22-1.08l2 .39c-.07.38-.15.74-.22 1.1a20 20 0 0 0-.58 4.31 29.56 29.56 0 0 0 2.38 11.28z" fill="#ffffff" fill-opacity="1"></path><path class="cls-2" id="path25" d="M37.5 62.5a25 25 0 0 1-25-25c0-.51 0-1 .05-1.51a25 25 0 0 1 17.81-22.45 25 25 0 0 1 19.36 2.16 25 25 0 0 1 3.07 41.58A25.2 25.2 0 0 1 37.5 62.5zm0-48a22.56 22.56 0 0 0-6.57 1 23 23 0 0 0-16.38 20.63c0 .47-.05.92-.05 1.37a23 23 0 0 0 23 23 22.61 22.61 0 0 0 7.42-1.24 22.32 22.32 0 0 0 6.64-3.57A23 23 0 0 0 37.5 14.5z" fill="#ffffff" fill-opacity="1"></path><path class="cls-2" id="path27" d="M39.93 25.93a4.43 4.43 0 1 1 4.43-4.42 4.42 4.42 0 0 1-4.43 4.42zm0-6.85a2.43 2.43 0 1 0 2.43 2.43 2.43 2.43 0 0 0-2.43-2.43z" fill="#ffffff" fill-opacity="1"></path><path class="cls-2" id="path29" d="M26.29 39.88a4.43 4.43 0 1 1 4.43-4.43 4.44 4.44 0 0 1-4.43 4.43zm0-6.86a2.43 2.43 0 1 0 2.43 2.43A2.43 2.43 0 0 0 26.29 33z" fill="#ffffff" fill-opacity="1"></path><path class="cls-2" id="path31" d="M48.28 52.7a4.43 4.43 0 1 1 4.42-4.42 4.42 4.42 0 0 1-4.42 4.42zm0-6.85a2.43 2.43 0 1 0 2.42 2.43 2.43 2.43 0 0 0-2.42-2.43z" fill="#ffffff" fill-opacity="1"></path></g></g></svg></g></g></g><g pointer-events="auto"></g><g pointer-events="auto"><g opacity="1"><g id="83408840-4975-44d8-87a0-332e71de9d76" transform="translate(0 0)"><svg x="135" y="585" overflow="visible"><g transform="scale(1.2074767078498865) "><circle cx="0" cy="0" fill="transparent" r="25"></circle><svg width="50" height="50" x="-25" y="-25" style=""><svg xmlns="http://www.w3.org/2000/svg" viewBox="0 0 50 50"><g id="Working" fill="#232f3e"><path d="M45.48 34.91h-41a3 3 0 0 1-3-3V5a3 3 0 0 1 3-3h41a3 3 0 0 1 3 3v26.89a3 3 0 0 1-3 3.02zM4.52 4a1 1 0 0 0-1 1v26.89a1 1 0 0 0 1 1h41a1 1 0 0 0 1-1V5a1 1 0 0 0-1-1zM45 48H5a3.53 3.53 0 0 1-3.5-3.49v-4.33A3.53 3.53 0 0 1 5 36.66h40a3.53 3.53 0 0 1 3.52 3.52v4.33A3.53 3.53 0 0 1 45 48zM5 38.66a1.52 1.52 0 0 0-1.5 1.52v4.33A1.52 1.52 0 0 0 5 46h40a1.52 1.52 0 0 0 1.52-1.52v-4.3A1.52 1.52 0 0 0 45 38.66z"></path><path d="M43.75 31.16H6.25a1 1 0 0 1-1-1V6.72a1 1 0 0 1 1-1h37.5a1 1 0 0 1 1 1v23.44a1 1 0 0 1-1 1zm-36.5-2h35.5V7.72H7.25z"></path><rect x="31.5" y="40.41" width="13.25" height="3.88" rx="1"></rect></g></svg></svg></g></svg></g></g><g opacity="1"><g id="36a4d7bd-c212-47c7-bae9-e7c6630a7749" transform="translate(0 0)"><svg x="675" y="765" overflow="visible"><g transform="scale(1.2074767078498865) "><circle cx="0" cy="0" fill="transparent" r="37.5"></circle><svg width="75" height="75" x="-37.5" y="-37.5" style=""><svg xmlns="http://www.w3.org/2000/svg" viewBox="0 0 75 75"><defs><linearGradient id="GreenGradient" x1="-522.53" y1="465.47" x2="-416.47" y2="571.53" gradientTransform="rotate(-90 -456.5 24.5)" gradientUnits="userSpaceOnUse"><stop offset="0" stop-color="#1b660f"></stop><stop offset="1" stop-color="#6cae3e"></stop></linearGradient></defs><g id="Reference"><path id="Green_Gradient" data-name="Green Gradient" fill="url(#GreenGradient)" d="M0 0h75v75H0z"></path><g id="Icon_Test" data-name="Icon Test"><path d="M61.43 40.06c-.29-1.57-2.07-2.68-3.29-3.47-.39-.25-1.46-.65-1.55-1a2.36 2.36 0 0 1 .1-.74l1-7.19c.29-2.11.57-4.22.86-6.33.26-1.94-.67-3.24-2.25-4.33-3.22-2.23-7.42-3.13-11.21-3.75a55.85 55.85 0 0 0-14.38-.47 40 40 0 0 0-12.53 3c-2.14 1-4.94 2.56-4.59 5.29 1 8.12 2.18 16.22 3.27 24.33l1.5 11.13a4.13 4.13 0 0 0 2.46 3.33c3.1 1.68 6.94 2.16 10.4 2.48A51.5 51.5 0 0 0 45 61.73c2.88-.53 8.24-1.4 8.7-5 .57-4.46 1.2-8.92 1.8-13.37l.22-1.36c1.63.39 6.28 1.22 5.71-1.94zM36.05 14.5c6 0 12.87.68 18.25 3.64.83.46 2.76 1.49 2.18 2.71S54.1 22.68 53 23.12a30.88 30.88 0 0 1-4.83 1.35 62.29 62.29 0 0 1-21.66.45 26.8 26.8 0 0 1-9.32-2.73c-.72-.41-1.91-1.15-1.58-2.13a3 3 0 0 1 1.18-1.26 20.84 20.84 0 0 1 7.2-2.91 50.35 50.35 0 0 1 12.06-1.39zm15.68 42.15c-.15 1.17-2.08 1.75-3 2.08a29.6 29.6 0 0 1-5.88 1.32 50.72 50.72 0 0 1-13.37 0 22.24 22.24 0 0 1-8-2.17 2 2 0 0 1-1.2-1.73c-1-7.93-2.14-15.86-3.21-23.79l-1.16-8.6a23.26 23.26 0 0 0 7.3 2.56 59.62 59.62 0 0 0 8.31 1.09 64.8 64.8 0 0 0 16.39-.91 24.27 24.27 0 0 0 8.21-2.74L54 39.46a120.43 120.43 0 0 1-14.82-6 4.27 4.27 0 0 1-.61-.29c-.27-.2-.2-.1-.33-.41-.25-.57-.31-1-.84-1.47a2.25 2.25 0 1 0-1.24 4 4.12 4.12 0 0 0 1-.3c.39-.12.39-.1.8.09a126.72 126.72 0 0 0 15 6.16c.77.25.76 0 .76.64a11.49 11.49 0 0 1-.19 1.45l-.64 4.77zM36.3 33c0 .27-.38.24-.48.07s.48-.45.48-.07zM56 40l.3-2.21c1 .57 2.7 1.43 3.15 2.57-.98.4-2.53-.13-3.45-.36z" fill="#fff"></path></g></g></svg></svg></g></svg></g></g><g opacity="1"><g id="3f720728-6a8a-415f-be6e-7bbc67e58d70" transform="translate(0 0)"><svg x="945" y="765" overflow="visible"><g transform="scale(1.7469281074217107) "><circle cx="0" cy="0" fill="#000000" r="23"></circle><svg width="27" height="32" x="-13.5" y="-16" style="fill: rgb(255, 255, 255);"><svg xmlns="http://www.w3.org/2000/svg" width="27" height="32" viewBox="0 0 27 32"><path d="M26.214 6.786c.661.661 1.214 1.982 1.214 2.929v20.571c0 .946-.768 1.714-1.714 1.714h-24A1.715 1.715 0 0 1 0 30.286V1.715C0 .769.768.001 1.714.001h16c.946 0 2.268.554 2.929 1.214zm-7.928-4.357v6.714H25c-.107-.304-.268-.607-.393-.732l-5.589-5.589c-.125-.125-.429-.286-.732-.393zm6.857 27.285V11.428h-7.429A1.715 1.715 0 0 1 16 9.714V2.285H2.286v27.429h22.857z"></path></svg></svg></g></svg></g></g><g opacity="1"><g id="55a8411a-e107-413d-8bab-dc6215a65a7b" transform="translate(0 0)"><svg x="405" y="405" overflow="visible"><g transform="scale(1.2074767078498865) "><circle cx="0" cy="0" fill="transparent" r="37.5"></circle><svg width="75" height="75" x="-37.5" y="-37.5" style=""><svg xmlns="http://www.w3.org/2000/svg" viewBox="0 0 75 75"><defs><linearGradient id="PurpleGradient" x1="-15.54" y1="90.54" x2="90.53" y2="-15.53" gradientUnits="userSpaceOnUse"><stop offset="0" stop-color="#4d27a8"></stop><stop offset="1" stop-color="#a166ff"></stop></linearGradient></defs><g id="Reference"><path id="Purple_Gradient" data-name="Purple Gradient" fill="url(#PurpleGradient)" d="M0 0h75v75H0z"></path><g id="Icon_Test" data-name="Icon Test" fill="#fff"><path d="M48.51 61.5a1 1 0 0 1-.59-.19 1 1 0 0 1-.42-.81v-46a1 1 0 0 1 .48-.85 1 1 0 0 1 1-.05l13 6.35a1 1 0 0 1 .56.89v35.34a1 1 0 0 1-.69 1l-13 4.32a1.19 1.19 0 0 1-.34 0zm1-45.39v43l11-3.65v-34zM26.5 61.5a1.19 1.19 0 0 1-.32 0l-13-4.32a1 1 0 0 1-.68-1V20.84a1 1 0 0 1 .56-.89l13-6.35a1 1 0 0 1 1 .05 1 1 0 0 1 .47.85v46a1 1 0 0 1-.42.81.94.94 0 0 1-.61.19zm-12-6l11 3.65v-43l-11 5.37z"></path><path d="M47.5 27.5h-3v-2h3zm-6 0h-3v-2h3zm-6 0h-3v-2h3zm-6 0h-3v-2h3zM47.5 49.5h-3v-2h3zm-6 0h-3v-2h3zm-6 0h-3v-2h3zm-6 0h-3v-2h3zM33.11 40.94l-3.76-3.21a1 1 0 0 1 0-1.52L33.1 33l1.3 1.52L31.54 37l2.86 2.45zM41.9 40.94l-1.3-1.52L43.46 37l-2.87-2.44 1.3-1.56 3.76 3.2a1 1 0 0 1 0 1.52z"></path><path transform="rotate(-71.32 37.488 37.496)" d="M31.29 36.5H43.7v2H31.29z"></path></g></g></svg></svg></g></svg></g></g><g opacity="1"><g id="0aaa2fd7-c9df-48ba-bb35-74035b00562c" transform="translate(0 0)"><svg x="675" y="405" overflow="visible"><g transform="scale(1.2074767078498865) "><circle cx="0" cy="0" fill="transparent" r="37.5"></circle><svg width="75" height="75" x="-37.5" y="-37.5" style=""><svg xmlns="http://www.w3.org/2000/svg" viewBox="0 0 75 75"><defs><linearGradient id="OrangeGradient" x1="-1788.05" y1="692.67" x2="-1788.05" y2="842.67" gradientTransform="rotate(-135 -1026.5 24.5)" gradientUnits="userSpaceOnUse"><stop offset="0" stop-color="#c8511b"></stop><stop offset="1" stop-color="#f90"></stop></linearGradient></defs><g id="Reference"><path id="Orange_Gradient" data-name="Orange Gradient" fill="url(#OrangeGradient)" d="M0 0h75v75H0z"></path><g id="Icon_Test" data-name="Icon Test" fill="#fff"><path d="M60.5 62.5H48.18a1 1 0 0 1-.9-.57L29.86 25.5h-7.37a1 1 0 0 1-1-1v-11a1 1 0 0 1 1-1h15.4a1 1 0 0 1 .9.57L56.13 49.5h4.37a1 1 0 0 1 1 1v11a1 1 0 0 1-1 1zm-11.69-2H59.5v-9h-4a1 1 0 0 1-.9-.57L37.26 14.5H23.5v9h7a1 1 0 0 1 .9.57z"></path><path d="M27.48 62.5h-13a1 1 0 0 1-.85-.47 1 1 0 0 1-.05-1l13.6-28.41a1 1 0 0 1 .9-.57 1 1 0 0 1 .9.56L35.49 46a1 1 0 0 1 0 .87l-7.1 15a1 1 0 0 1-.91.63zm-11.4-2h10.77l6.63-14-5.39-11.15z"></path></g></g></svg></svg></g></svg></g></g></g><g pointer-events="auto"><g opacity="1"><g id="7f25c99f-728c-4afa-96ad-4454c624e52e"><svg x="139" y="585" overflow="visible"><text stroke="#ffffff" stroke-width="4" font-family="Open Sans" y="36.5" font-size="25pt" fill="#f5b720" font-weight="bold" transform="" xml:space="preserve"><tspan x="8" dy="0">Client</tspan></text><text font-family="Open Sans" y="36.5" font-size="25pt" fill="#f5b720" font-weight="bold" transform="" xml:space="preserve"><tspan x="8" dy="0">Client</tspan></text></svg></g></g><g opacity="1"><g id="ebc255f2-c545-4fee-8ce4-45d6ebe70876"><svg x="315" y="810" overflow="visible"><text stroke="#ffffff" stroke-width="4" font-family="Open Sans" y="36.5" font-size="25pt" fill="#f5b720" font-weight="bold" transform="" xml:space="preserve"><tspan x="8" dy="0">CloudFront</tspan></text><text font-family="Open Sans" y="36.5" font-size="25pt" fill="#f5b720" font-weight="bold" transform="" xml:space="preserve"><tspan x="8" dy="0">CloudFront</tspan></text></svg></g></g><g opacity="1"><g id="7c0754b4-574e-4c37-b47b-35ffccea8bf6"><svg x="585" y="810" overflow="visible"><text stroke="#ffffff" stroke-width="4" font-family="Open Sans" y="36.5" font-size="25pt" fill="#f5b720" font-weight="bold" transform="" xml:space="preserve"><tspan x="8" dy="0">S3 Bucket</tspan></text><text font-family="Open Sans" y="36.5" font-size="25pt" fill="#f5b720" font-weight="bold" transform="" xml:space="preserve"><tspan x="8" dy="0">S3 Bucket</tspan></text></svg></g></g><g opacity="1"><g id="978c29c4-0ba7-4a36-afcc-200a174d751b"><svg x="855" y="810" overflow="visible"><text stroke="#ffffff" stroke-width="4" font-family="Open Sans" y="36.5" font-size="25pt" fill="#f5b720" font-weight="bold" transform="" xml:space="preserve"><tspan x="8" dy="0">index.html</tspan></text><text font-family="Open Sans" y="36.5" font-size="25pt" fill="#f5b720" font-weight="bold" transform="" xml:space="preserve"><tspan x="8" dy="0">index.html</tspan></text></svg></g></g><g opacity="1"><g id="6f981f2b-0cfa-404f-877e-efd5a32afab7"><svg x="248" y="450" overflow="visible"><text stroke="#ffffff" stroke-width="4" font-family="Open Sans" y="36.5" font-size="25pt" fill="#f5b720" font-weight="bold" transform="" xml:space="preserve"><tspan x="8" dy="0">Websocket API</tspan></text><text font-family="Open Sans" y="36.5" font-size="25pt" fill="#f5b720" font-weight="bold" transform="" xml:space="preserve"><tspan x="8" dy="0">Websocket API</tspan></text></svg></g></g><g opacity="1"><g id="d9b50658-ef70-400c-8ed9-22568bc99899"><svg x="563" y="450" overflow="visible"><text stroke="#ffffff" stroke-width="4" font-family="Open Sans" y="36.5" font-size="25pt" fill="#f5b720" font-weight="bold" transform="" xml:space="preserve"><tspan x="8" dy="0">Lambda Function</tspan></text><text font-family="Open Sans" y="36.5" font-size="25pt" fill="#f5b720" font-weight="bold" transform="" xml:space="preserve"><tspan x="8" dy="0">Lambda Function</tspan></text></svg></g></g></g><g></g></g></svg>